<svg xmlns="http://www.w3.org/2000/svg" viewBox="0 0 64 64">
  <defs>
    <linearGradient id="bg" x1="8" y1="6" x2="56" y2="60" gradientUnits="userSpaceOnUse">
      <stop offset="0%" stop-color="#1a0732" />
      <stop offset="45%" stop-color="#3f0f6f" />
      <stop offset="100%" stop-color="#7d2de0" />
    </linearGradient>
    <linearGradient id="swirlA" x1="10" y1="14" x2="54" y2="50" gradientUnits="userSpaceOnUse">
      <stop offset="0%" stop-color="#f0d4ff" />
      <stop offset="40%" stop-color="#d18eff" />
      <stop offset="100%" stop-color="#8f4dff" />
    </linearGradient>
    <linearGradient id="swirlB" x1="18" y1="8" x2="58" y2="56" gradientUnits="userSpaceOnUse">
      <stop offset="0%" stop-color="#ffffff" />
      <stop offset="100%" stop-color="#b471ff" />
    </linearGradient>
    <filter id="glow" x="-30%" y="-30%" width="160%" height="160%">
      <feGaussianBlur stdDeviation="1.2" result="blur" />
      <feMerge>
        <feMergeNode in="blur" />
        <feMergeNode in="SourceGraphic" />
      </feMerge>
    </filter>
  </defs>
  <rect width="64" height="64" rx="14" fill="url(#bg)" />
  <circle cx="18" cy="14" r="10" fill="#b85cff" opacity="0.2" />
  <circle cx="52" cy="48" r="14" fill="#6f2cd9" opacity="0.25" />
  <g fill="none" stroke-linecap="round" stroke-linejoin="round" filter="url(#glow)">
    <path d="M12 31c0-10 8-18 19-18 11 0 19 8 19 18 0 9-7 16-16 16-8 0-13-5-13-11 0-6 5-10 10-10 5 0 9 4 9 9 0 3-3 6-6 6" stroke="url(#swirlA)" stroke-width="5" />
    <path d="M18 20c4-4 9-6 15-6 12 0 21 9 21 20s-9 20-20 20" stroke="url(#swirlB)" stroke-width="2.4" opacity="0.9" />
  </g>
</svg>
